<?xml version="1.0" encoding="UTF-8"?><svg id="a" xmlns="http://www.w3.org/2000/svg" xmlns:xlink="http://www.w3.org/1999/xlink" viewBox="0 0 141.73 141.73"><defs><style>.c{fill:#fff;}.d{fill:url(#b);}</style><linearGradient id="b" x1="0" y1="70.87" x2="141.73" y2="70.87" gradientTransform="matrix(1, 0, 0, 1, 0, 0)" gradientUnits="userSpaceOnUse"><stop offset="0" stop-color="#ee7a12"/><stop offset="1" stop-color="#f2b813"/></linearGradient></defs><circle class="d" cx="70.87" cy="70.87" r="70.87"/><g><polyline class="c" points="20.44 101.5 26.8 101.5 63.5 47.5 62.79 101.5 69.19 101.5 69.41 36.64 63.18 36.64 20.44 101.5"/><path class="c" d="M96.84,68.33v22.95c0,5.18,2.13,6.63,5.64,6.63,2.59,0,4.5-1.07,5.72-1.91l1.83,4.04c-2.21,1.52-5.64,2.52-8.69,2.52-9.3,0-10.44-5.11-10.44-11.44V36.53h5.95v27.07"/><rect class="c" x="72.77" y="62.35" width="28.55" height="4.73"/><circle class="c" cx="50.45" cy="81.05" r="3.62"/></g></svg>