<?xml version="1.0" encoding="UTF-8"?><svg id="a" xmlns="http://www.w3.org/2000/svg" xmlns:xlink="http://www.w3.org/1999/xlink" viewBox="0 0 492.26 108.26"><defs><style>.c{fill:#fff;}.d{fill:url(#b);}</style><linearGradient id="b" x1="7.15" y1="54.13" x2="485.11" y2="54.13" gradientTransform="matrix(1, 0, 0, 1, 0, 0)" gradientUnits="userSpaceOnUse"><stop offset="0" stop-color="#ee7a12"/><stop offset="1" stop-color="#f2b813"/></linearGradient></defs><rect class="d" x="7.15" y="5.3" width="477.96" height="97.66" rx="5.67" ry="5.67"/><g><g><path class="c" d="M77.76,17.13l-39.25,59.56h5.84L78.05,27.1l-.65,49.59h5.88l.2-59.56h-5.72Z"/><path class="c" d="M108.67,46.24v21.07c0,4.76,1.96,6.09,5.18,6.09,2.38,0,4.13-.98,5.25-1.75l1.68,3.71c-2.03,1.4-5.18,2.31-7.98,2.31-8.54,0-9.59-4.69-9.59-10.5V17.03h5.46v24.86"/><path class="c" d="M127.85,86.49c0-5.67,4.27-9.73,7.7-11.97-5.6-.63-9.8-3.36-9.8-11.48v-21.14h5.46v19.95c0,5.11,.49,9.1,7.91,9.1,4.48,0,8.47-3.36,8.47-8.19v-20.86h5.39v33.32c0,3.08-.35,7.21-1.12,9.73-1.61,6.51-6.02,10.36-13.44,10.36s-10.57-3.43-10.57-8.82Zm19.74-8.26v-6.37c-8.4,3.43-14.7,7.28-14.7,13.86,0,3.57,2.24,5.39,6.02,5.39,6.37,0,8.68-5.32,8.68-12.88Z"/><path class="c" d="M175.8,40.92c11.06,0,15.89,6.16,15.89,17.99s-5.39,18.76-14.14,18.76c-3.5,0-6.72-1.12-8.96-2.66v16.38h-5.46V43.02c4.83-1.4,9.17-2.1,12.67-2.1Zm10.43,18.76c0-7.49-1.82-14.21-10.57-14.21-2.38,0-5.11,.49-7.07,1.19v23.31c1.89,1.89,5.6,3.15,8.61,3.15,5.11,0,9.03-3.71,9.03-13.44Z"/><path class="c" d="M199.31,31.96c0-2.03,1.54-3.64,3.64-3.64s3.64,1.54,3.64,3.64-1.61,3.71-3.71,3.71-3.57-1.54-3.57-3.71Zm6.37,9.94v34.79h-5.53V41.9h5.53Z"/><path class="c" d="M223.7,16.94V50.77h.07c1.89-4.62,6.02-9.94,13.65-9.94,6.37,0,9.1,3.92,9.1,8.96,0,4.76-2.45,10.29-8.68,13.3l8.75,13.51h-6.3l-7.49-11.41c-2.03,.49-6.37,.84-9.1,.84v10.57h-5.46V16.94h5.46Zm17.36,33.54c0-3.15-1.47-5.11-5.25-5.11-6.79,0-12.04,8.47-12.32,16.38,12.95,.14,17.57-5.39,17.57-11.27Z"/><path class="c" d="M324.5,59.05c0-14.49,8.61-18.13,15.54-18.13,4.83,0,14.35,1.54,14.35,17.36,0,13.65-6.72,19.39-15.54,19.39s-14.35-6.02-14.35-18.62Zm24.36,.42c0-8.4-2.45-14.21-9.24-14.21s-9.59,5.53-9.59,13.09c0,6.93,1.33,15.12,9.31,15.12,6.58,0,9.52-6.37,9.52-14Z"/><path class="c" d="M362.44,41.9h4.62l.7,4.97c2.45-3.85,6.37-5.95,10.64-5.95,4.69,0,8.12,1.89,10.01,6.44,2.24-4.27,6.44-6.44,10.85-6.44,7.21,0,11.2,4.34,11.2,12.32v23.45h-5.46v-21.98c0-4.97-1.05-9.45-7.14-9.45-4.83,0-8.4,4.06-8.4,8.33v23.1h-5.46v-21.91c0-4.48-.63-9.52-7.14-9.52-4.97,0-8.4,4.27-8.4,8.68v22.75h-5.46v-29.54l-.56-5.25Z"/><path class="c" d="M418.86,59.82c0-10.36,5.81-18.9,16.24-18.9,6.51,0,10.22,3.5,10.22,8.68,0,11.41-14.49,12.32-21,12.11,.28,5.67,3.01,11.62,10.36,11.62,4.76,0,7.7-2.24,8.96-3.22l2.1,3.71c-1.75,1.47-5.74,3.85-11.34,3.85-10.92,0-15.54-7.42-15.54-17.85Zm21.28-9.59c0-3.29-2.17-5.25-5.32-5.25-7.49,0-10.36,7.07-10.57,12.53,3.78,.28,15.89-.21,15.89-7.28Z"/><rect class="c" x="86.56" y="40.74" width="26.21" height="4.34"/><circle class="c" cx="66.07" cy="57.91" r="3.32"/><path class="c" d="M279.03,17.14h5.72l-.2,59.55h-5.88m0,0,.65-49.58"/><path class="c" d="M309.95,46.24v21.07c0,4.76,1.96,6.09,5.18,6.09,2.38,0,4.13-.98,5.25-1.75l1.68,3.71c-2.03,1.4-5.18,2.31-7.98,2.31-8.54,0-9.59-4.69-9.59-10.5V17.03h5.46v24.86"/><rect class="c" x="287.84" y="40.74" width="26.21" height="4.34"/><circle class="c" cx="267.35" cy="57.91" r="3.32"/></g><polyline class="c" points="38.51 76.69 44.35 76.69 78.05 27.1 77.4 76.69 83.28 76.69 83.48 17.13 77.76 17.13 38.51 76.69"/><path class="c" d="M108.67,46.24v21.07c0,4.76,1.96,6.09,5.18,6.09,2.38,0,4.13-.98,5.25-1.75l1.68,3.71c-2.03,1.4-5.18,2.31-7.98,2.31-8.54,0-9.59-4.69-9.59-10.5V17.03h5.46v24.86"/><rect class="c" x="86.56" y="40.74" width="26.21" height="4.34"/><circle class="c" cx="66.07" cy="57.91" r="3.32"/></g></svg>