<?xml version="1.0" encoding="UTF-8"?><svg id="a" xmlns="http://www.w3.org/2000/svg" viewBox="0 0 35.49 40.34"><defs><style>.c{fill:#f2b705;}</style></defs><path id="b" class="c" d="M18.54,2.2c1.96-.03,3.91-.01,5.86-.03,.06,2.34,1,4.57,2.62,6.26,1.76,1.58,4,2.53,6.36,2.69v6.05c-2.18-.05-4.32-.55-6.3-1.45-.84-.4-1.66-.87-2.43-1.4-.01,4.38,.01,8.76-.03,13.13-.11,2.12-.82,4.17-2.02,5.91-2.02,2.92-5.31,4.71-8.86,4.82-2.15,.1-4.28-.44-6.12-1.54-3.08-1.83-5.11-5-5.48-8.57-.03-.75-.05-1.5-.02-2.24,.62-6.21,6.15-10.74,12.35-10.12,.25,.02,.5,.06,.75,.1,.03,2.22-.06,4.44-.06,6.66-2.68-.94-5.62,.47-6.56,3.15v.03c-.24,.78-.32,1.6-.22,2.42,.4,2.56,2.66,4.41,5.25,4.31,1.7-.05,3.27-.96,4.15-2.42,.33-.47,.55-1.02,.61-1.59,.15-2.68,.09-5.35,.1-8.04,.02-6.04-.01-12.07,.03-18.1Z"/></svg>