<?xml version="1.0" encoding="UTF-8"?><svg id="a" xmlns="http://www.w3.org/2000/svg" viewBox="0 0 47.49 40.34"><defs><style>.c{fill:#f2b705;}</style></defs><path id="b" class="c" d="M1.24,34.33c.73,.07,1.47,.11,2.2,.11,4.17,.04,8.22-1.35,11.48-3.95-1.94,0-3.83-.65-5.38-1.83-1.55-1.14-2.69-2.74-3.26-4.57,.57,.11,1.14,.16,1.72,.15,.83,0,1.65-.11,2.45-.33-2.1-.38-3.98-1.51-5.32-3.16-1.38-1.64-2.13-3.73-2.1-5.87v-.11c1.28,.73,2.73,1.12,4.21,1.13-1.26-.82-2.3-1.95-3.02-3.27-.74-1.35-1.13-2.87-1.12-4.41,0-1.64,.44-3.24,1.28-4.65,2.28,2.85,5.15,5.17,8.4,6.82,3.3,1.69,6.92,2.66,10.63,2.84-.16-.7-.24-1.41-.26-2.12-.04-2.45,.94-4.81,2.71-6.51,1.72-1.77,4.09-2.75,6.55-2.71,2.56-.04,5.02,1.03,6.73,2.93,2.07-.42,4.04-1.19,5.85-2.27-.64,2.16-2.08,3.99-4.02,5.12,1.82-.23,3.59-.72,5.27-1.46-1.21,1.87-2.76,3.5-4.57,4.79v1.21c0,2.51-.37,5-1.08,7.41-.74,2.52-1.85,4.91-3.29,7.1-1.47,2.25-3.25,4.27-5.29,6.02-2.18,1.83-4.68,3.25-7.37,4.19-2.97,1.05-6.09,1.58-9.24,1.55-5.02,.02-9.94-1.41-14.16-4.14Z"/></svg>