<?xml version="1.0" encoding="UTF-8"?><svg id="a" xmlns="http://www.w3.org/2000/svg" viewBox="0 0 40.6 40.34"><defs><style>.c{fill:#f2b705;}</style></defs><path id="b" class="c" d="M37.74,20.27c0-9.63-7.81-17.44-17.44-17.43-9.63,0-17.44,7.81-17.43,17.44,0,8.58,6.24,15.88,14.71,17.22v-12.19h-4.43v-5.04h4.43v-3.84c0-4.37,2.6-6.78,6.59-6.78,1.31,.02,2.61,.13,3.9,.34v4.29h-2.2c-1.38-.18-2.65,.79-2.83,2.17-.02,.18-.03,.37-.01,.56v3.28h4.84l-.77,5.04h-4.06v12.19c8.47-1.34,14.71-8.65,14.71-17.23Z"/></svg>